<svg width="176" height="18" viewBox="0 0 176 18" fill="none" xmlns="http://www.w3.org/2000/svg">
<g clip-path="url(#clip0_39_68)">
<path d="M106.089 9.31652H105.708L103.532 15.4292H101.801L104.555 7.93555H107.276L110.018 15.4292H108.288L106.089 9.31652ZM103.64 12.4317H108.081V13.8127H103.64V12.4317Z" fill="#042328"/>
<path d="M98.1449 7.93555V14.0482H101.497V15.4292H96.4579V7.93555H98.1449Z" fill="#042328"/>
<path d="M95.3443 9.31652H91.4913V10.9758H94.3756V12.2926H91.4913V14.0482H95.3443V15.4292H89.8043V7.93555H95.3443V9.31652Z" fill="#042328"/>
<path d="M85.9369 11.3184C86.1981 11.3184 86.4121 11.2791 86.579 11.2006C86.7459 11.1221 86.8692 11.0079 86.9491 10.8581C87.0361 10.7011 87.0797 10.5191 87.0797 10.3121C87.0797 10.0052 86.9853 9.76257 86.7967 9.58415C86.6153 9.40573 86.3287 9.31652 85.9369 9.31652H84.3804V11.3184H85.9369ZM88.7885 10.3121C88.7885 10.6047 88.734 10.8938 88.6252 11.1792C88.5236 11.4576 88.3604 11.7145 88.1354 11.95C87.9177 12.1784 87.6311 12.3604 87.2756 12.496C86.9273 12.6316 86.5101 12.6994 86.0239 12.6994H84.3804V15.4292H82.6934V7.93555H86.0239C86.6407 7.93555 87.1522 8.04617 87.5586 8.26741C87.9722 8.48151 88.2805 8.77055 88.4837 9.13453C88.6869 9.49137 88.7885 9.88389 88.7885 10.3121Z" fill="#042328"/>
<path d="M53.2484 15.4292H51.5614V7.93555H53.5314L55.7844 13.2774L58.0483 7.93555H60.0074V15.4292H58.3204V10.8688L56.4592 15.4292H55.1096L53.2484 10.8688V15.4292Z" fill="#042328"/>
<path d="M46.6709 15.5044C46.1267 15.5044 45.6188 15.4116 45.1471 15.226C44.6755 15.0405 44.2619 14.78 43.9064 14.4445C43.5508 14.102 43.2715 13.6987 43.0683 13.2349C42.8651 12.7638 42.7635 12.2464 42.7635 11.6826C42.7635 11.1188 42.8651 10.6049 43.0683 10.141C43.2715 9.67002 43.5508 9.26679 43.9064 8.93136C44.2619 8.58879 44.6755 8.32473 45.1471 8.13918C45.6188 7.95362 46.1267 7.86084 46.6709 7.86084C47.2078 7.86084 47.7121 7.95362 48.1838 8.13918C48.6627 8.32473 49.0763 8.58879 49.4246 8.93136C49.7801 9.26679 50.0595 9.67002 50.2626 10.141C50.4658 10.6049 50.5674 11.1188 50.5674 11.6826C50.5674 12.2464 50.4658 12.7638 50.2626 13.2349C50.0595 13.6987 49.7801 14.102 49.4246 14.4445C49.069 14.78 48.6554 15.0405 48.1838 15.226C47.7121 15.4116 47.2078 15.5044 46.6709 15.5044ZM46.6709 14.0913C47.099 14.0913 47.4763 13.9914 47.8028 13.7915C48.1366 13.5846 48.3942 13.2991 48.5756 12.9351C48.7643 12.5711 48.8586 12.1536 48.8586 11.6826C48.8586 11.2044 48.7643 10.7869 48.5756 10.4301C48.3942 10.0661 48.1366 9.78421 47.8028 9.58438C47.4763 9.37741 47.099 9.27393 46.6709 9.27393C46.2283 9.27393 45.8437 9.37741 45.5172 9.58438C45.1907 9.78421 44.9331 10.0661 44.7444 10.4301C44.563 10.7869 44.4723 11.2044 44.4723 11.6826C44.4723 12.1536 44.563 12.5711 44.7444 12.9351C44.9331 13.2991 45.1907 13.5846 45.5172 13.7915C45.8437 13.9914 46.2283 14.0913 46.6709 14.0913Z" fill="#042328"/>
<path d="M34.6004 11.6826C34.6004 11.1259 34.6947 10.6156 34.8834 10.1518C35.0793 9.68073 35.3478 9.27393 35.6888 8.93136C36.0298 8.58879 36.4362 8.32473 36.9078 8.13918C37.3794 7.95362 37.891 7.86084 38.4424 7.86084C39.2624 7.86084 39.9771 8.0571 40.5866 8.44963C41.1961 8.84215 41.6387 9.39168 41.9144 10.0982L40.4778 10.4515C40.3399 10.166 40.1657 9.93765 39.9553 9.76637C39.7449 9.58795 39.5127 9.45948 39.2588 9.38098C39.0048 9.29534 38.7363 9.25252 38.4533 9.25252C38.018 9.25252 37.637 9.35957 37.3105 9.57367C36.984 9.78064 36.73 10.0661 36.5486 10.4301C36.3745 10.7941 36.2874 11.2116 36.2874 11.6826C36.2874 12.1608 36.3745 12.5818 36.5486 12.9458C36.73 13.3098 36.984 13.5953 37.3105 13.8022C37.637 14.0092 38.018 14.1127 38.4533 14.1127C38.7436 14.1127 39.0193 14.0699 39.2805 13.9842C39.549 13.8986 39.7921 13.7558 40.0097 13.556C40.2347 13.3562 40.4233 13.0885 40.5757 12.7531L41.9906 13.0743C41.7004 13.8665 41.2469 14.4695 40.6301 14.8835C40.0134 15.2974 39.2841 15.5044 38.4424 15.5044C37.891 15.5044 37.3794 15.4116 36.9078 15.226C36.4362 15.0405 36.0298 14.78 35.6888 14.4445C35.3478 14.102 35.0793 13.6987 34.8834 13.2349C34.6947 12.7638 34.6004 12.2464 34.6004 11.6826Z" fill="#042328"/>
<path d="M26.9864 15.5044C26.4422 15.5044 25.9343 15.4116 25.4626 15.226C24.991 15.0405 24.5774 14.78 24.2219 14.4445C23.8663 14.102 23.587 13.6987 23.3838 13.2349C23.1806 12.7638 23.079 12.2464 23.079 11.6826C23.079 11.1188 23.1806 10.6049 23.3838 10.141C23.587 9.67002 23.8663 9.26679 24.2219 8.93136C24.5774 8.58879 24.991 8.32473 25.4626 8.13918C25.9343 7.95362 26.4422 7.86084 26.9864 7.86084C27.5233 7.86084 28.0276 7.95362 28.4993 8.13918C28.9782 8.32473 29.3918 8.58879 29.74 8.93136C30.0956 9.26679 30.3749 9.67002 30.5781 10.141C30.7813 10.6049 30.8829 11.1188 30.8829 11.6826C30.8829 12.2464 30.7813 12.7638 30.5781 13.2349C30.3749 13.6987 30.0956 14.102 29.74 14.4445C29.3845 14.78 28.9709 15.0405 28.4993 15.226C28.0276 15.4116 27.5233 15.5044 26.9864 15.5044ZM26.9864 14.0913C27.4145 14.0913 27.7918 13.9914 28.1183 13.7915C28.4521 13.5846 28.7097 13.2991 28.8911 12.9351C29.0797 12.5711 29.1741 12.1536 29.1741 11.6826C29.1741 11.2044 29.0797 10.7869 28.8911 10.4301C28.7097 10.0661 28.4521 9.78421 28.1183 9.58438C27.7918 9.37741 27.4145 9.27393 26.9864 9.27393C26.5438 9.27393 26.1592 9.37741 25.8327 9.58438C25.5062 9.78421 25.2486 10.0661 25.0599 10.4301C24.8785 10.7869 24.7878 11.2044 24.7878 11.6826C24.7878 12.1536 24.8785 12.5711 25.0599 12.9351C25.2486 13.2991 25.5062 13.5846 25.8327 13.7915C26.1592 13.9914 26.5438 14.0913 26.9864 14.0913Z" fill="#042328"/>
<path d="M15.9999 7.93555H22.3997V9.31652H20.0379V15.4292H18.3618V9.31652H15.9999V7.93555Z" fill="#042328"/>
<path d="M13.2974 7.93555H14.9844V15.4292H13.2974V7.93555Z" fill="#042328"/>
<path d="M12.1836 9.31652H8.33063V10.9758H11.2149V12.2926H8.33063V14.0482H12.1836V15.4292H6.64362V7.93555H12.1836V9.31652Z" fill="#042328"/>
<path d="M0.149414 7.93555H5.68936V9.31652H1.83643V10.9758H4.72069V12.2926H1.83643V15.4292H0.149414V7.93555Z" fill="#042328"/>
<path d="M71.4998 17.27C71.4239 17.27 71.3483 17.2519 71.2802 17.2156C71.2064 17.1762 69.4523 16.2341 67.6733 14.8147C66.6188 13.9735 65.777 13.1391 65.1713 12.3348C64.3877 11.294 63.9938 10.2929 64.0001 9.35922C64.0076 8.2728 64.4282 7.2511 65.1845 6.48229C65.954 5.70052 66.9806 5.27002 68.0753 5.27002C69.4787 5.27002 70.7615 5.9971 71.5001 7.14888C72.2384 5.99713 73.5213 5.27002 74.9247 5.27002C75.9591 5.27002 76.9458 5.65846 77.7036 6.36381C78.5352 7.13785 79.0077 8.23153 78.9999 9.36438C78.9936 10.2964 78.5922 11.296 77.8068 12.3353C77.1993 13.1393 76.3587 13.9733 75.3084 14.8143C73.5357 16.2336 71.7941 17.1756 71.7209 17.215C71.6525 17.2517 71.5763 17.27 71.4998 17.27Z" fill="#11BDD7"/>
<path d="M137.196 17.4385H134.018V16.1493C133.691 16.6068 133.265 16.9672 132.739 17.2306C132.227 17.494 131.573 17.6256 130.777 17.6256C129.981 17.6256 129.249 17.487 128.58 17.2098C127.926 16.9187 127.365 16.5236 126.896 16.0246C126.427 15.5255 126.057 14.9295 125.787 14.2364C125.531 13.5433 125.403 12.7878 125.403 11.97C125.403 11.1383 125.531 10.3759 125.787 9.68277C126.057 8.98967 126.427 8.38669 126.896 7.87379C127.379 7.36093 127.948 6.96583 128.602 6.68861C129.27 6.3975 129.995 6.25195 130.777 6.25195C131.573 6.25195 132.227 6.39057 132.739 6.66783C133.265 6.93118 133.691 7.29852 134.018 7.76983V6.45987H137.196V17.4385ZM134.018 11.5749C133.947 10.9373 133.67 10.4036 133.187 9.97387C132.703 9.53028 132.092 9.30852 131.353 9.30852C130.94 9.30852 130.571 9.37783 130.244 9.51644C129.917 9.65506 129.632 9.84914 129.391 10.0986C129.164 10.3343 128.985 10.6184 128.858 10.9511C128.744 11.27 128.687 11.6096 128.687 11.97C128.687 12.3165 128.751 12.6492 128.879 12.968C129.007 13.2869 129.185 13.5641 129.412 13.7997C129.639 14.0354 129.917 14.2225 130.244 14.3612C130.585 14.4998 130.955 14.5691 131.353 14.5691C131.722 14.5691 132.056 14.5136 132.355 14.4027C132.668 14.278 132.938 14.1186 133.166 13.9245C133.407 13.7304 133.599 13.4948 133.741 13.2175C133.883 12.9403 133.976 12.6492 134.018 12.3442V11.5749Z" fill="#042328"/>
<path d="M139.578 6.45987H142.756V8.06093C143.168 7.49261 143.673 7.04901 144.27 6.7302C144.881 6.41138 145.571 6.25195 146.339 6.25195C146.936 6.25195 147.476 6.35591 147.959 6.56387C148.443 6.75791 148.848 7.03518 149.175 7.39559C149.516 7.74212 149.779 8.16489 149.964 8.66391C150.149 9.1491 150.241 9.68971 150.241 10.2857V17.4385H147.064V11.367C147.064 10.7432 146.879 10.2511 146.509 9.89069C146.154 9.51644 145.699 9.3293 145.144 9.3293C144.789 9.3293 144.469 9.40554 144.185 9.55803C143.9 9.69665 143.652 9.89069 143.438 10.1402C143.225 10.3759 143.062 10.6531 142.948 10.9719C142.834 11.2769 142.77 11.6026 142.756 11.9492V17.4385H139.578V6.45987Z" fill="#042328"/>
<path d="M152.636 6.34912H155.814V10.4106H156.603L159.141 6.45998H163L159.546 11.8661L163.512 17.4386H159.418L156.667 13.3216H155.814V17.4386H152.636V6.34912Z" fill="#042328"/>
<path d="M175.786 17.4385H172.609V16.1493C172.282 16.6068 171.855 16.9672 171.329 17.2306C170.817 17.494 170.163 17.6256 169.367 17.6256C168.571 17.6256 167.839 17.487 167.17 17.2098C166.516 16.9187 165.955 16.5236 165.486 16.0246C165.017 15.5255 164.647 14.9295 164.377 14.2364C164.121 13.5433 163.993 12.7878 163.993 11.97C163.993 11.1383 164.121 10.3759 164.377 9.68277C164.647 8.98967 165.017 8.38669 165.486 7.87379C165.969 7.36093 166.538 6.96583 167.192 6.68861C167.86 6.3975 168.585 6.25195 169.367 6.25195C170.163 6.25195 170.817 6.39057 171.329 6.66783C171.855 6.93118 172.282 7.29852 172.609 7.76983V6.45987H175.786V17.4385ZM172.609 11.5749C172.537 10.9373 172.26 10.4036 171.777 9.97387C171.294 9.53028 170.682 9.30852 169.943 9.30852C169.53 9.30852 169.161 9.37783 168.834 9.51644C168.507 9.65506 168.223 9.84914 167.981 10.0986C167.753 10.3343 167.576 10.6184 167.448 10.9511C167.334 11.27 167.277 11.6096 167.277 11.97C167.277 12.3165 167.341 12.6492 167.469 12.968C167.597 13.2869 167.775 13.5641 168.002 13.7997C168.23 14.0354 168.507 14.2225 168.834 14.3612C169.175 14.4998 169.545 14.5691 169.943 14.5691C170.313 14.5691 170.647 14.5136 170.945 14.4027C171.258 14.278 171.528 14.1186 171.755 13.9245C171.997 13.7304 172.189 13.4948 172.331 13.2175C172.473 12.9403 172.566 12.6492 172.609 12.3442V11.5749Z" fill="#042328"/>
<path d="M115.587 2.26472H115.433L114.467 4.86483H114.018L115.126 1.91016H115.885L116.993 4.86483H116.545L115.587 2.26472ZM114.585 3.75894H116.378V4.1135H114.585V3.75894Z" fill="#042328"/>
<path d="M126.77 2.8132C126.658 2.61341 126.516 2.46849 126.344 2.37844C126.174 2.2884 125.988 2.24338 125.786 2.24338C125.581 2.24338 125.393 2.29121 125.223 2.38689C125.054 2.48256 124.919 2.61622 124.819 2.78788C124.723 2.95672 124.674 3.15651 124.674 3.38726C124.674 3.61519 124.723 3.81498 124.819 3.98663C124.916 4.15829 125.047 4.29195 125.215 4.38762C125.384 4.4833 125.573 4.53114 125.781 4.53114C125.931 4.53114 126.071 4.50581 126.203 4.45516C126.335 4.40451 126.449 4.33416 126.546 4.24411C126.646 4.15406 126.723 4.04713 126.779 3.92332V3.60253H125.812V3.2564H127.222V3.94442C127.152 4.12452 127.046 4.28632 126.906 4.42983C126.768 4.57335 126.603 4.68731 126.409 4.77173C126.219 4.85334 126.01 4.89414 125.781 4.89414C125.565 4.89414 125.361 4.85756 125.171 4.7844C124.983 4.71123 124.819 4.60852 124.679 4.47627C124.538 4.34119 124.428 4.1822 124.349 3.99929C124.27 3.81357 124.23 3.60956 124.23 3.38726C124.23 3.16776 124.27 2.96657 124.349 2.78366C124.428 2.59793 124.538 2.43754 124.679 2.30246C124.819 2.1674 124.983 2.06328 125.171 1.99011C125.361 1.91695 125.565 1.88037 125.781 1.88037C125.977 1.88037 126.165 1.91132 126.344 1.97323C126.522 2.03514 126.682 2.12519 126.823 2.24338C126.963 2.36156 127.073 2.50648 127.152 2.67813L126.77 2.8132Z" fill="#042328"/>
<path d="M136.446 1.67776L135.831 1.31476L135.216 1.67776V1.34431L135.831 0.989746L136.446 1.34431V1.67776ZM136.859 2.26448H135.243V3.18887H136.455V3.54343H135.243V4.51003H136.859V4.86459H134.804V1.90992H136.859V2.26448Z" fill="#042328"/>
<path d="M146.918 1.91016V4.86483H146.47L144.937 2.57707V4.86483H144.497V1.91016H144.945L146.479 4.18948V1.91016H146.918Z" fill="#042328"/>
<path d="M154.47 3.38726C154.47 3.16495 154.51 2.96234 154.589 2.77944C154.668 2.59371 154.778 2.43472 154.918 2.30246C155.059 2.1674 155.221 2.06328 155.406 1.99011C155.593 1.91695 155.795 1.88037 156.012 1.88037C156.32 1.88037 156.594 1.94931 156.834 2.0872C157.077 2.22508 157.261 2.42347 157.387 2.68235L157.036 2.80476C156.966 2.67251 156.876 2.56558 156.768 2.48397C156.659 2.40236 156.541 2.34186 156.412 2.30246C156.283 2.26307 156.153 2.24338 156.021 2.24338C155.813 2.24338 155.624 2.2898 155.454 2.38267C155.287 2.47553 155.155 2.60778 155.059 2.77944C154.965 2.95109 154.918 3.15369 154.918 3.38726C154.918 3.618 154.965 3.8192 155.059 3.99085C155.155 4.16251 155.287 4.29617 155.454 4.39184C155.624 4.48471 155.813 4.53114 156.021 4.53114C156.156 4.53114 156.289 4.51003 156.421 4.46782C156.553 4.42561 156.676 4.35808 156.79 4.26522C156.904 4.16954 156.998 4.04573 157.071 3.89377L157.422 4.01196C157.291 4.31024 157.102 4.53254 156.856 4.67887C156.61 4.82238 156.329 4.89414 156.012 4.89414C155.795 4.89414 155.593 4.85756 155.406 4.7844C155.221 4.71123 155.059 4.60711 154.918 4.47204C154.778 4.33697 154.668 4.17798 154.589 3.99507C154.51 3.80935 154.47 3.60675 154.47 3.38726Z" fill="#042328"/>
<path d="M165.026 1.91016H165.465V4.86483H165.026V1.91016Z" fill="#042328"/>
<path d="M174.445 2.26472H174.291L173.324 4.86483H172.876L173.984 1.91016H174.743L175.85 4.86483H175.402L174.445 2.26472ZM173.443 3.75894H175.236V4.1135H173.443V3.75894Z" fill="#042328"/>
<path d="M114.093 6.3667H117.546V11.1058V11.7954L119.919 10.3825L121.251 12.2092L125.155 17.4172H121.059L118.566 14.5025H117.546V17.4172H114.093V6.3667Z" fill="#042328"/>
<path d="M120.321 6.3667L117.55 11.8069L120.321 10.336H124.464V6.3667H120.321Z" fill="#11BDD7"/>
<path d="M137.196 17.4385H134.018V16.1493C133.691 16.6068 133.265 16.9672 132.739 17.2306C132.227 17.494 131.573 17.6256 130.777 17.6256C129.981 17.6256 129.249 17.487 128.58 17.2098C127.926 16.9187 127.365 16.5236 126.896 16.0246C126.427 15.5255 126.057 14.9295 125.787 14.2364C125.531 13.5433 125.403 12.7878 125.403 11.97C125.403 11.1383 125.531 10.3759 125.787 9.68277C126.057 8.98967 126.427 8.38669 126.896 7.87379C127.379 7.36093 127.948 6.96583 128.602 6.68861C129.27 6.3975 129.995 6.25195 130.777 6.25195C131.573 6.25195 132.227 6.39057 132.739 6.66783C133.265 6.93118 133.691 7.29852 134.018 7.76983V6.45987H137.196V17.4385ZM134.018 11.5749C133.947 10.9373 133.67 10.4036 133.187 9.97387C132.703 9.53028 132.092 9.30852 131.353 9.30852C130.94 9.30852 130.571 9.37783 130.244 9.51644C129.917 9.65506 129.632 9.84914 129.391 10.0986C129.164 10.3343 128.985 10.6184 128.858 10.9511C128.744 11.27 128.687 11.6096 128.687 11.97C128.687 12.3165 128.751 12.6492 128.879 12.968C129.007 13.2869 129.185 13.5641 129.412 13.7997C129.639 14.0354 129.917 14.2225 130.244 14.3612C130.585 14.4998 130.955 14.5691 131.353 14.5691C131.722 14.5691 132.056 14.5136 132.355 14.4027C132.668 14.278 132.938 14.1186 133.166 13.9245C133.407 13.7304 133.599 13.4948 133.741 13.2175C133.883 12.9403 133.976 12.6492 134.018 12.3442V11.5749Z" fill="#042328"/>
<path d="M139.578 6.45987H142.756V8.06093C143.168 7.49261 143.673 7.04901 144.27 6.7302C144.881 6.41138 145.571 6.25195 146.339 6.25195C146.936 6.25195 147.476 6.35591 147.959 6.56387C148.443 6.75791 148.848 7.03518 149.175 7.39559C149.516 7.74212 149.779 8.16489 149.964 8.66391C150.149 9.1491 150.241 9.68971 150.241 10.2857V17.4385H147.064V11.367C147.064 10.7432 146.879 10.2511 146.509 9.89069C146.154 9.51644 145.699 9.3293 145.144 9.3293C144.789 9.3293 144.469 9.40554 144.185 9.55803C143.9 9.69665 143.652 9.89069 143.438 10.1402C143.225 10.3759 143.062 10.6531 142.948 10.9719C142.834 11.2769 142.77 11.6026 142.756 11.9492V17.4385H139.578V6.45987Z" fill="#042328"/>
<path d="M152.636 6.34912H155.814V10.4106H156.603L159.141 6.45998H163L159.546 11.8661L163.512 17.4386H159.418L156.667 13.3216H155.814V17.4386H152.636V6.34912Z" fill="#042328"/>
<path d="M175.786 17.4385H172.609V16.1493C172.282 16.6068 171.855 16.9672 171.329 17.2306C170.817 17.494 170.163 17.6256 169.367 17.6256C168.571 17.6256 167.839 17.487 167.17 17.2098C166.516 16.9187 165.955 16.5236 165.486 16.0246C165.017 15.5255 164.647 14.9295 164.377 14.2364C164.121 13.5433 163.993 12.7878 163.993 11.97C163.993 11.1383 164.121 10.3759 164.377 9.68277C164.647 8.98967 165.017 8.38669 165.486 7.87379C165.969 7.36093 166.538 6.96583 167.192 6.68861C167.86 6.3975 168.585 6.25195 169.367 6.25195C170.163 6.25195 170.817 6.39057 171.329 6.66783C171.855 6.93118 172.282 7.29852 172.609 7.76983V6.45987H175.786V17.4385ZM172.609 11.5749C172.537 10.9373 172.26 10.4036 171.777 9.97387C171.294 9.53028 170.682 9.30852 169.943 9.30852C169.53 9.30852 169.161 9.37783 168.834 9.51644C168.507 9.65506 168.223 9.84914 167.981 10.0986C167.753 10.3343 167.576 10.6184 167.448 10.9511C167.334 11.27 167.277 11.6096 167.277 11.97C167.277 12.3165 167.341 12.6492 167.469 12.968C167.597 13.2869 167.775 13.5641 168.002 13.7997C168.23 14.0354 168.507 14.2225 168.834 14.3612C169.175 14.4998 169.545 14.5691 169.943 14.5691C170.313 14.5691 170.647 14.5136 170.945 14.4027C171.258 14.278 171.528 14.1186 171.755 13.9245C171.997 13.7304 172.189 13.4948 172.331 13.2175C172.473 12.9403 172.566 12.6492 172.609 12.3442V11.5749Z" fill="#042328"/>
<path d="M115.587 2.26472H115.433L114.467 4.86483H114.018L115.126 1.91016H115.885L116.993 4.86483H116.545L115.587 2.26472ZM114.585 3.75894H116.378V4.1135H114.585V3.75894Z" fill="#042328"/>
<path d="M126.77 2.8132C126.658 2.61341 126.516 2.46849 126.344 2.37844C126.174 2.2884 125.988 2.24338 125.786 2.24338C125.581 2.24338 125.393 2.29121 125.223 2.38689C125.054 2.48256 124.919 2.61622 124.819 2.78788C124.723 2.95672 124.674 3.15651 124.674 3.38726C124.674 3.61519 124.723 3.81498 124.819 3.98663C124.916 4.15829 125.047 4.29195 125.215 4.38762C125.384 4.4833 125.573 4.53114 125.781 4.53114C125.931 4.53114 126.071 4.50581 126.203 4.45516C126.335 4.40451 126.449 4.33416 126.546 4.24411C126.646 4.15406 126.723 4.04713 126.779 3.92332V3.60253H125.812V3.2564H127.222V3.94442C127.152 4.12452 127.046 4.28632 126.906 4.42983C126.768 4.57335 126.603 4.68731 126.409 4.77173C126.219 4.85334 126.01 4.89414 125.781 4.89414C125.565 4.89414 125.361 4.85756 125.171 4.7844C124.983 4.71123 124.819 4.60852 124.679 4.47627C124.538 4.34119 124.428 4.1822 124.349 3.99929C124.27 3.81357 124.23 3.60956 124.23 3.38726C124.23 3.16776 124.27 2.96657 124.349 2.78366C124.428 2.59793 124.538 2.43754 124.679 2.30246C124.819 2.1674 124.983 2.06328 125.171 1.99011C125.361 1.91695 125.565 1.88037 125.781 1.88037C125.977 1.88037 126.165 1.91132 126.344 1.97323C126.522 2.03514 126.682 2.12519 126.823 2.24338C126.963 2.36156 127.073 2.50648 127.152 2.67813L126.77 2.8132Z" fill="#042328"/>
<path d="M136.446 1.67776L135.831 1.31476L135.216 1.67776V1.34431L135.831 0.989746L136.446 1.34431V1.67776ZM136.859 2.26448H135.243V3.18887H136.455V3.54343H135.243V4.51003H136.859V4.86459H134.804V1.90992H136.859V2.26448Z" fill="#042328"/>
<path d="M146.918 1.91016V4.86483H146.47L144.937 2.57707V4.86483H144.497V1.91016H144.945L146.479 4.18948V1.91016H146.918Z" fill="#042328"/>
<path d="M154.47 3.38726C154.47 3.16495 154.51 2.96234 154.589 2.77944C154.668 2.59371 154.778 2.43472 154.918 2.30246C155.059 2.1674 155.221 2.06328 155.406 1.99011C155.593 1.91695 155.795 1.88037 156.012 1.88037C156.32 1.88037 156.594 1.94931 156.834 2.0872C157.077 2.22508 157.261 2.42347 157.387 2.68235L157.036 2.80476C156.966 2.67251 156.876 2.56558 156.768 2.48397C156.659 2.40236 156.541 2.34186 156.412 2.30246C156.283 2.26307 156.153 2.24338 156.021 2.24338C155.813 2.24338 155.624 2.2898 155.454 2.38267C155.287 2.47553 155.155 2.60778 155.059 2.77944C154.965 2.95109 154.918 3.15369 154.918 3.38726C154.918 3.618 154.965 3.8192 155.059 3.99085C155.155 4.16251 155.287 4.29617 155.454 4.39184C155.624 4.48471 155.813 4.53114 156.021 4.53114C156.156 4.53114 156.289 4.51003 156.421 4.46782C156.553 4.42561 156.676 4.35808 156.79 4.26522C156.904 4.16954 156.998 4.04573 157.071 3.89377L157.422 4.01196C157.291 4.31024 157.102 4.53254 156.856 4.67887C156.61 4.82238 156.329 4.89414 156.012 4.89414C155.795 4.89414 155.593 4.85756 155.406 4.7844C155.221 4.71123 155.059 4.60711 154.918 4.47204C154.778 4.33697 154.668 4.17798 154.589 3.99507C154.51 3.80935 154.47 3.60675 154.47 3.38726Z" fill="#042328"/>
<path d="M165.026 1.91016H165.465V4.86483H165.026V1.91016Z" fill="#042328"/>
<path d="M174.445 2.26472H174.291L173.324 4.86483H172.876L173.984 1.91016H174.743L175.85 4.86483H175.402L174.445 2.26472ZM173.443 3.75894H175.236V4.1135H173.443V3.75894Z" fill="#042328"/>
<path d="M114.093 6.3667H117.546V11.1058V11.7954L119.919 10.3825L121.251 12.2092L125.155 17.4172H121.059L118.566 14.5025H117.546V17.4172H114.093V6.3667Z" fill="#042328"/>
<path d="M120.321 6.3667L117.55 11.8069L120.321 10.336H124.464V6.3667H120.321Z" fill="#11BDD7"/>
</g>
<defs>
<clipPath id="clip0_39_68">
<rect width="175.701" height="16.6359" fill="white" transform="translate(0.149414 0.989746)"/>
</clipPath>
</defs>
</svg>
