<svg xmlns="http://www.w3.org/2000/svg" id="Camada_2" data-name="Camada 2" viewBox="0 0 101.5 101.5"><defs><style>      .cls-1 {        fill: #fff;        stroke-width: 0px;      }    </style></defs><g id="Camada_1-2" data-name="Camada 1"><g><path class="cls-1" d="m50.75.42C37.3.42,24.67,5.65,15.16,15.16,5.65,24.67.42,37.3.42,50.75s5.24,26.08,14.74,35.59c9.51,9.51,22.15,14.74,35.59,14.74s26.08-5.24,35.59-14.74c9.51-9.51,14.74-22.15,14.74-35.59s-5.24-26.08-14.74-35.59C76.83,5.65,64.19.42,50.75.42Zm0,101.08c-13.56,0-26.3-5.28-35.88-14.86C5.28,77.05,0,64.3,0,50.75S5.28,24.45,14.86,14.86C24.45,5.28,37.19,0,50.75,0s26.3,5.28,35.88,14.86c9.59,9.59,14.86,22.33,14.86,35.88s-5.28,26.3-14.86,35.88c-9.59,9.59-22.33,14.86-35.88,14.86Z"></path><path class="cls-1" d="m50.75,17.78c-18.18,0-32.97,14.79-32.97,32.97s14.79,32.97,32.97,32.97,32.97-14.79,32.97-32.97-14.79-32.97-32.97-32.97Zm0,66.36c-18.41,0-33.39-14.98-33.39-33.39s14.98-33.39,33.39-33.39,33.39,14.98,33.39,33.39-14.98,33.39-33.39,33.39Z"></path><path class="cls-1" d="m92.8,49.55c-.66,0-1.2.54-1.2,1.2s.54,1.2,1.2,1.2,1.2-.54,1.2-1.2-.54-1.2-1.2-1.2Zm-82.9,1.2c0,.66-.54,1.2-1.2,1.2s-1.2-.54-1.2-1.2.54-1.2,1.2-1.2,1.2.54,1.2,1.2Z"></path><path class="cls-1" d="m17.14,21.76c-.28-.27-.42-.6-.44-.99-.01-.39.07-.78.26-1.15.13-.28.34-.56.62-.84.71-.73,1.6-1.02,2.64-.88l-.03.56c-.82-.02-1.47.22-1.95.71-.23.24-.37.5-.41.8-.04.3.06.56.29.79.23.22.65.2,1.28-.06.24-.09.53-.22.86-.38.67-.32,1.28-.45,1.81-.38.29.04.56.19.83.44.31.31.48.68.51,1.11s-.06.86-.27,1.28c-.15.31-.38.62-.68.93-.39.4-.85.68-1.38.85-.53.17-1.06.21-1.6.1v-.6c.42.06.84.03,1.25-.1.41-.13.76-.35,1.06-.65.3-.3.47-.63.5-.97.04-.34-.09-.66-.39-.95-.1-.1-.24-.15-.41-.15-.17,0-.31.02-.43.05-.11.04-.26.09-.43.17-.24.1-.52.22-.85.37-.53.23-1.02.36-1.47.39-.45.03-.84-.13-1.18-.46Z"></path><path class="cls-1" d="m28.57,18.34l-1.38-.85-2.34,1.72.4,1.57-.75.56-1.71-6.89.91-.67,6.01,3.72-1.13.83Zm-4.69-2.89l.76,2.93,1.85-1.36-2.57-1.6-.04.03Z"></path><path class="cls-1" d="m29.02,12.52l2.12,4.23-.75.38-2.94-5.87,1.05-.52,5.3,2.64.04-.02-2.12-4.23.75-.38,2.94,5.87-1.05.52-5.3-2.64-.04.02Z"></path><path class="cls-1" d="m38.21,13.67l-1.72-5.5-2.06.64-.24-.76,5.37-1.67.1.8-1.92.6,1.72,5.5-1.25.39Z"></path><path class="cls-1" d="m42.51,5.84l1.25,6.44-1.29.25-1.25-6.44,1.29-.25Z"></path><path class="cls-1" d="m52.48,8.49h.61c0,.69-.14,1.25-.42,1.69l1.41,1.5h-1.45l-.66-.75c-.26.29-.58.52-.94.69-.36.17-.74.25-1.13.25-.67,0-1.24-.17-1.7-.51-.46-.34-.69-.82-.69-1.46,0-.44.15-.83.44-1.18s.66-.63,1.11-.84v-.05c-.12-.1-.22-.21-.3-.34-.09-.12-.17-.26-.22-.4-.06-.14-.09-.32-.09-.53,0-.36.12-.67.36-.93.24-.26.54-.45.91-.58.28-.09.59-.13.94-.13.41,0,.8.1,1.17.3.37.2.67.48.9.82l-.47.42c-.4-.53-.87-.8-1.41-.8-.14,0-.28.03-.42.08-.19.08-.34.2-.47.35-.13.15-.19.32-.19.51,0,.28.16.59.47.94l1.92,2.06c.22-.38.33-.76.33-1.12Zm-2.39,2.62c.39,0,.72-.12,1.01-.36.14-.1.25-.22.35-.35l-1.78-1.97c-.25.16-.45.37-.61.63-.16.26-.23.54-.23.82,0,.36.12.66.36.88.24.22.54.34.9.34Z"></path><path class="cls-1" d="m58.45,7.33c.09-.38.29-.67.62-.89.33-.22.7-.34,1.12-.38.31-.03.65,0,1.04.09.99.23,1.7.83,2.13,1.8l-.5.27c-.41-.71-.95-1.14-1.62-1.29-.32-.08-.62-.05-.9.07-.28.12-.45.34-.52.66-.07.31.17.66.72,1.06.21.16.46.34.77.54.62.41,1.05.86,1.27,1.34.12.26.14.58.05.94-.1.43-.33.76-.68,1.01-.36.25-.77.39-1.23.44-.35.03-.73,0-1.14-.09-.54-.13-1.02-.37-1.45-.73-.42-.36-.73-.8-.92-1.31l.51-.32c.17.4.42.74.74,1.02.32.28.69.47,1.11.57.41.1.78.07,1.09-.08.31-.15.52-.42.61-.83.03-.14,0-.28-.08-.43-.09-.15-.18-.26-.27-.34-.09-.08-.21-.17-.37-.28-.21-.15-.46-.33-.76-.53-.48-.33-.84-.68-1.1-1.05-.26-.37-.33-.79-.22-1.25Z"></path><path class="cls-1" d="m67.33,15.3v-1.62s-2.69-1.1-2.69-1.1l-1.13,1.16-.87-.35,4.99-5.05,1.04.42-.04,7.07-1.3-.53Zm.02-5.51l-2.1,2.18,2.13.87.02-3.03-.04-.02Z"></path><path class="cls-1" d="m72.53,12.65l-2.51,4.02-.72-.45,3.48-5.57.99.62.51,5.9.04.02,2.51-4.02.72.45-3.48,5.57-.99-.62-.51-5.9-.04-.02Z"></path><path class="cls-1" d="m76.34,21.1l3.8-4.33-1.62-1.42.53-.6,4.23,3.71-.63.51-1.52-1.33-3.8,4.33-.99-.87Z"></path><path class="cls-1" d="m85.27,20.67l-4.85,4.42-.88-.97,4.85-4.42.88.97Z"></path><path class="cls-1" d="m12.77,61.3l-4.7,1.19-.24-.94,4.7-1.19.24.94Z"></path><path class="cls-1" d="m13.12,66.76l-3.14-.73-.08-.23,1.91-2.64-.02-.05-3.25,1.19-.2-.55,4.56-1.66.31.85-2.03,2.73v.03s3.32.78,3.32.78l.27.75-4.56,1.66-.33-.91,3.25-1.19v-.03Z"></path><path class="cls-1" d="m15.1,67.84l.88,1.69c.12.24.21.47.27.71.06.24.08.47.06.7-.02.23-.09.45-.22.65-.13.2-.32.36-.57.49-.33.17-.65.22-.97.15s-.59-.21-.81-.43c-.22-.22-.42-.48-.58-.8l-.43-.83-1.47.77-.45-.86,4.3-2.25Zm-.06,3.32c.27-.14.44-.33.51-.59.08-.25.05-.51-.09-.77l-.43-.83-1.78.93.43.83c.14.27.33.44.59.51.25.08.51.05.77-.09Z"></path><path class="cls-1" d="m15.02,72.91c.6-.42,1.25-.55,1.94-.41.7.14,1.25.51,1.67,1.11.42.6.57,1.25.46,1.95-.11.7-.47,1.26-1.06,1.67-.6.42-1.25.55-1.94.41-.7-.14-1.25-.51-1.67-1.11-.42-.6-.57-1.25-.46-1.95.11-.7.47-1.26,1.06-1.67Zm2.41,3.47c.43-.3.73-.68.9-1.15.17-.47.12-.9-.16-1.31-.2-.28-.46-.47-.78-.55-.32-.08-.66-.08-1.01.02-.25.07-.51.19-.77.37-.27.19-.49.41-.67.68-.18.26-.28.56-.31.88-.03.32.05.62.24.9.2.28.46.47.78.55.32.08.66.08,1.01-.02.25-.07.51-.19.76-.37Z"></path><path class="cls-1" d="m19.39,79.74l-.68-.76-1.31,1.18-.65-.72,3.6-3.25,1.18,1.31c.24.27.43.55.56.83.13.28.18.59.14.91-.04.32-.19.6-.46.85-.23.2-.48.31-.76.33-.28.02-.55-.06-.82-.22l-.03.02-.56,2.37-.72-.8.51-2.07Zm-.27-1.13l.53.59c.2.22.43.34.69.37.27.03.51-.06.72-.25.22-.2.33-.43.32-.69,0-.27-.1-.51-.3-.73l-.53-.59-1.44,1.3Z"></path><path class="cls-1" d="m21.08,83.93l2.83-3.18-1.19-1.06.39-.44,3.1,2.77-.47.37-1.11-.99-2.83,3.18-.72-.65Z"></path><path class="cls-1" d="m26.34,88.06l.28-1.16-1.75-1.25-1.01.64-.56-.4,4.45-2.79.68.48-1.23,5.08-.85-.6Zm.95-3.96l-1.88,1.21,1.38.98.53-2.18-.03-.02Z"></path><path class="cls-1" d="m30.25,84.85l1.4.76c.66.36,1.11.86,1.36,1.5.25.64.2,1.28-.15,1.92-.35.64-.87,1.03-1.54,1.17-.68.13-1.34.02-1.99-.33l-1.4-.76,2.32-4.26Zm1.12,1.28l-.55-.3-1.76,3.22.55.3c.45.24.89.28,1.32.11.43-.17.77-.48,1.02-.93.25-.45.32-.91.23-1.36-.1-.46-.37-.8-.81-1.04Z"></path><path class="cls-1" d="m33.34,89.28c.26-.68.72-1.16,1.38-1.43.66-.27,1.32-.27,2-.01.68.27,1.18.72,1.47,1.36.3.64.32,1.3.05,1.98-.26.68-.72,1.16-1.38,1.43-.66.27-1.32.27-2,.01-.68-.27-1.18-.72-1.47-1.36-.3-.64-.32-1.3-.05-1.98Zm3.94,1.53c.19-.49.22-.97.11-1.46-.12-.48-.41-.81-.87-.99-.32-.13-.64-.13-.95-.02-.31.11-.59.3-.83.58-.17.2-.31.44-.43.74-.12.31-.18.62-.18.94,0,.32.08.62.24.91.16.28.39.49.7.61.32.13.64.13.96.02.31-.11.59-.31.83-.58.17-.2.31-.44.43-.73Z"></path><path class="cls-1" d="m40.77,92.5l-.99-.25-.43,1.71-.94-.23,1.17-4.71,1.71.43c.35.09.66.21.93.38.27.16.47.39.62.68.15.29.18.61.09.96-.07.3-.22.53-.45.7-.22.17-.49.26-.8.28v.03s.85,2.28.85,2.28l-1.04-.26-.74-2Zm-.85-.78l.77.19c.29.07.55.04.78-.08.24-.12.39-.33.46-.61.07-.29.03-.54-.12-.76-.15-.22-.37-.36-.66-.43l-.77-.19-.47,1.88Z"></path><path class="cls-1" d="m46.66,95.31l-.31-1.16-2.13-.27-.59,1.04-.69-.09,2.61-4.55.82.11,1.31,5.06-1.03-.13Zm-1.03-3.94l-1.09,1.96,1.68.22-.56-2.17h-.03Z"></path><path class="cls-1" d="m51.35,93.29l.04,1.63,2.74-.07v.59s-3.69.09-3.69.09l-.12-4.85,3.6-.09-.09.59-2.53.06.04,1.45,1.87-.05-.09.59-1.77.04Z"></path><path class="cls-1" d="m56.1,90.37l1.57-.29c.74-.14,1.41-.03,2,.31.6.34.96.87,1.09,1.59.13.72-.02,1.35-.46,1.88-.44.53-1.03.86-1.76.99l-1.57.29-.87-4.77Zm1.67.29l-.61.11.66,3.61.61-.11c.5-.09.87-.34,1.1-.74.23-.4.3-.86.21-1.36-.09-.51-.32-.91-.68-1.2-.36-.29-.79-.39-1.28-.3Z"></path><path class="cls-1" d="m61.81,89.15l1.27,4.68-.94.25-1.27-4.68.94-.25Z"></path><path class="cls-1" d="m62.93,90.08c-.1-.27-.09-.54.03-.8.12-.26.3-.49.54-.68.18-.14.41-.26.68-.36.71-.25,1.39-.16,2.04.27l-.2.37c-.54-.27-1.05-.33-1.53-.16-.23.08-.41.22-.53.4-.12.19-.14.39-.06.62.08.22.37.35.87.38.19.02.42.02.69.03.55,0,.99.12,1.32.33.18.12.31.31.41.56.11.3.1.6-.02.9-.12.3-.32.55-.59.77-.2.16-.45.29-.75.4-.39.14-.78.18-1.19.12-.41-.06-.77-.21-1.09-.45l.19-.4c.26.18.55.29.87.34.31.05.62.02.91-.09.3-.1.51-.27.65-.48.14-.22.15-.47.05-.76-.04-.1-.11-.18-.22-.23s-.21-.09-.3-.1-.2-.02-.34-.03c-.19-.01-.42-.02-.69-.03-.43-.02-.79-.09-1.1-.22-.31-.13-.52-.36-.64-.69Z"></path><path class="cls-1" d="m69.59,91.42l-1.83-3.85-1.44.68-.25-.53,3.75-1.78.16.58-1.35.64,1.83,3.85-.88.42Z"></path><path class="cls-1" d="m73.41,87.37l-.87.53.93,1.5-.83.51-2.54-4.13,1.5-.93c.31-.19.62-.32.92-.4s.61-.07.92.03c.31.09.56.3.75.61.16.26.22.53.19.81-.03.28-.15.53-.36.76l.02.03,2.23.98-.91.56-1.95-.88Zm-1.16.06l.68-.42c.25-.15.42-.36.49-.62s.04-.51-.11-.75c-.15-.25-.36-.4-.62-.45s-.52,0-.77.16l-.68.42,1.02,1.65Z"></path><path class="cls-1" d="m74.78,82.7l2.87,3.91-.78.57-2.87-3.91.78-.57Z"></path><path class="cls-1" d="m78.64,85.89l-3.18-3.67,1.34-1.16c.17-.15.35-.28.53-.38.18-.1.37-.18.57-.23.2-.05.4-.05.59.01.2.06.37.18.53.36.29.34.27.75-.06,1.25l.02.03c.2-.13.41-.22.62-.27.2-.06.39-.07.57-.03.22.06.4.18.55.35.17.2.27.41.31.64s.02.45-.07.66c-.08.21-.19.41-.33.6-.14.19-.3.36-.48.52l-1.52,1.32Zm-1.45-4.38l-.6.52.91,1.05.6-.52c.18-.15.28-.32.32-.51.03-.19-.02-.36-.17-.54-.15-.17-.32-.26-.51-.25-.19,0-.37.09-.55.25Zm1.45,1.31l-.79.68,1.13,1.31.79-.68c.21-.18.33-.39.37-.63.04-.24-.03-.46-.2-.66-.18-.2-.39-.3-.63-.29-.24,0-.47.1-.68.28Z"></path><path class="cls-1" d="m83.6,80.62c.25-.28.36-.59.31-.94-.05-.35-.21-.65-.5-.91l-2.25-2.05.42-.46,2.25,2.05c.43.39.64.85.64,1.38s-.19,1.01-.58,1.44c-.39.43-.85.67-1.38.71-.53.04-1.01-.13-1.43-.51l-2.25-2.05.65-.72,2.25,2.05c.28.26.6.39.96.4.36.01.66-.12.91-.39Z"></path><path class="cls-1" d="m82.65,74.81l3.85,2.95-.59.77-3.85-2.95.59-.77Z"></path><path class="cls-1" d="m83.18,74.17l.86-1.34c.41-.63.94-1.05,1.59-1.25.66-.2,1.29-.11,1.91.29.62.4.97.94,1.06,1.62.09.68-.07,1.34-.47,1.96l-.86,1.34-4.08-2.62Zm1.36-1.02l-.34.52,3.09,1.98.34-.52c.27-.43.34-.86.21-1.31-.14-.44-.42-.81-.85-1.08-.44-.28-.88-.39-1.34-.32-.46.06-.83.31-1.1.73Z"></path><path class="cls-1" d="m87.82,71.41c-.66-.31-1.1-.8-1.32-1.48-.22-.67-.18-1.34.13-2,.31-.66.8-1.12,1.46-1.37.66-.25,1.32-.22,1.98.09.66.31,1.1.8,1.32,1.48.22.67.18,1.34-.13,2-.31.66-.8,1.12-1.46,1.37-.66.25-1.32.22-1.98-.09Zm1.8-3.82c-.47-.22-.95-.29-1.44-.21-.49.08-.84.35-1.05.79-.15.31-.18.63-.09.95.09.32.26.61.52.87.18.18.42.34.71.48.3.14.6.22.92.24.32.02.63-.03.92-.17s.51-.36.65-.66c.15-.31.18-.63.09-.95-.09-.32-.26-.61-.52-.87-.18-.18-.42-.34-.7-.48Z"></path><path class="cls-1" d="m91.55,64.21l-.31.97,1.68.55-.3.92-4.61-1.5.55-1.68c.11-.35.26-.65.44-.9s.42-.44.72-.57c.3-.13.62-.13.97-.02.29.09.51.26.67.49.15.24.23.51.22.81h.03s2.34-.69,2.34-.69l-.33,1.02-2.05.59Zm-.84.8l.25-.76c.09-.28.08-.54-.02-.79s-.3-.41-.58-.5c-.28-.09-.54-.07-.76.06s-.39.34-.48.62l-.25.76,1.84.6Z"></path><path class="cls-1" d="m94.78,58.54l-1.18.22-.42,2.11,1,.66-.14.68-4.36-2.93.16-.81,5.14-.94-.2,1.02Zm-4,.75l1.87,1.23.33-1.66-2.2.4v.03Z"></path><path class="cls-1" d="m37.5,40.06c2.08.47,3.86,1.1,5.34,1.88,1.48.78,2.59,1.64,3.31,2.58.72.94,1.23,1.83,1.53,2.69.29.85.44,1.75.44,2.68,0,2.85-1.13,5.18-3.37,6.99-2.25,1.81-5.28,2.71-9.09,2.71-2.58,0-4.93-.38-7.04-1.15-2.11-.77-3.8-1.77-5.06-3l4.17-6.6c-.26,2.91.63,5.32,2.65,7.22,2.03,1.91,4.35,2.86,6.95,2.86,1.23,0,2.28-.21,3.13-.63.85-.42,1.48-.97,1.87-1.66.39-.68.67-1.32.84-1.92.16-.6.25-1.21.25-1.83,0-1.68-.6-2.91-1.81-3.7-1.2-.79-3.26-1.52-6.17-2.19-4-.9-6.85-2.32-8.57-4.25-1.71-1.93-2.57-4.02-2.57-6.29,0-2.77,1.09-4.94,3.26-6.54,2.17-1.59,5.08-2.39,8.72-2.39,4.76,0,8.53,1.33,11.31,4l-4.32,6.56c.39-2.88-.39-5.26-2.32-7.14-1.93-1.88-4.2-2.82-6.79-2.82-1.88,0-3.19.52-3.93,1.57-.75,1.05-1.12,2.26-1.12,3.63,0,1.99.7,3.45,2.11,4.37,1.4.92,3.5,1.71,6.3,2.35Z"></path><path class="cls-1" d="m67.8,52.54c2.08.47,3.86,1.1,5.34,1.88,1.48.78,2.59,1.64,3.31,2.58.72.94,1.23,1.83,1.53,2.69.29.85.44,1.75.44,2.68,0,2.85-1.13,5.18-3.37,6.99-2.25,1.81-5.28,2.71-9.09,2.71-2.58,0-4.93-.38-7.04-1.15-2.11-.77-3.8-1.77-5.06-3l4.17-6.6c-.26,2.91.63,5.32,2.65,7.22,2.03,1.91,4.35,2.86,6.95,2.86,1.23,0,2.27-.21,3.13-.63.85-.42,1.48-.97,1.87-1.66.39-.68.67-1.32.84-1.92.16-.6.25-1.21.25-1.83,0-1.68-.6-2.91-1.81-3.7-1.2-.79-3.26-1.52-6.17-2.19-4-.9-6.85-2.32-8.57-4.25-1.71-1.93-2.57-4.02-2.57-6.29,0-2.77,1.09-4.94,3.26-6.54,2.17-1.59,5.08-2.39,8.72-2.39,4.76,0,8.53,1.33,11.31,4l-4.32,6.56c.39-2.88-.39-5.26-2.32-7.14-1.93-1.88-4.2-2.82-6.79-2.82-1.88,0-3.19.52-3.93,1.57-.75,1.05-1.12,2.26-1.12,3.63,0,1.99.7,3.45,2.11,4.37,1.4.92,3.5,1.71,6.3,2.35Z"></path><path class="cls-1" d="m57.17,61.63h-2.8c-.16-.11-.33-.24-.49-.38-.64.24-1.43.4-2.4.4-3.04,0-4.47-1.4-4.47-3.39,0-1.61,1.05-2.31,2.31-2.77-.4-.89-.6-1.49-.6-2.64,0-1.35,1.13-2.37,2.77-2.37s2.81,1.02,2.81,2.37c0,2.24-2.08,2.5-3.85,3.01.91,1.69,2.4,3.45,4.01,4.58,1.19-.95,1.48-2.43,1.53-3.28h.97c-.27.95-.64,2.56-2.07,3.56.76.49,1.54.81,2.29.91Zm-3.63-.65c-1.51-1.3-3.01-3.08-3.93-4.85-.92.37-1.62.94-1.62,2.15,0,1.81,1,3.07,3.48,3.07.83,0,1.51-.14,2.07-.37Zm-3.99-8.13c0,1.14.21,1.54.57,2.35,1.67-.49,3.37-.84,3.37-2.43,0-1.22-.89-2.07-2.02-2.07-1.24,0-1.92.92-1.92,2.15Z"></path></g></g></svg>